<svg xmlns="http://www.w3.org/2000/svg" viewBox="0 0 512 512">
  <rect width="512" height="512" rx="112" fill="#0B1120"/>
  <rect x="12" y="12" width="488" height="488" rx="100" fill="none" stroke="#fff" stroke-opacity=".14" stroke-width="24"/>
  <path d="M131.2 379.2V136h86.4l40 147.2L299.2 136h81.6v243.2h-59.2V224l-46.4 155.2H240L192 224v155.2h-60.8Z" fill="#fff"/>
  <path d="M83.2 156.8h99.2v68.8c0 33.6-4.8 61.6-16 83.2-11.2 22.4-32 40-62.4 52.8l-20.8-57.6c16-6.4 27.2-14.4 33.6-24 6.4-9.6 11.2-22.4 11.2-38.4H83.2v-84.8Z" fill="#F15A54"/>
  <path d="M369.6 99.2h40v40h-40v-40Zm0 65.6h40v40h-40v-40Zm-65.6-65.6h40v40h-40v-40Z" fill="#A1C4FD"/>
  <path d="M304 164.8h40v40h-40v-40Z" fill="#C2E9FB"/>
</svg>
